<svg xmlns="http://www.w3.org/2000/svg" width="93" height="32" viewBox="0 0 93 32">
    <g fill="#1e40af" fill-rule="evenodd">
        <path d="M26.64.537v30.295l-4.439-2.025-3.115 1.301v-.002c-1.67.687-3.541 1.057-5.542 1.057C6.127 31.163.499 26.1.499 18.585V.537H26.64zM13.552 24.483V6.348H7.77v15.498l5.782 2.637zm7.494-5.652l-5.648 2.575v3.078l5.648-2.576v-3.077zM54.938 12.495c-.687-1.357-1.59-3.695-1.778-6.127h-1.423s.338 4.38 2.462 7.302h1.479c2.125-2.922 2.462-7.302 2.462-7.302h-1.423c-.188 2.432-1.091 4.77-1.779 6.127M84 3.447h-1.46V6.37h-.89v1.116h.89v4.092c0 1.121.582 2.093 2.03 2.093h.778v-1.3h-.525c-.613 0-.822-.3-.822-.882V7.485h1.347V6.369H84V3.447M37.507 10.164c0 1.355-.838 2.231-2.134 2.231-1.295 0-2.133-.876-2.133-2.231V3.455h-1.49v6.78c0 .999.368 1.897 1.039 2.529.657.621 1.575.964 2.584.964.824 0 1.587-.228 2.198-.65l1.425.65V3.455h-1.49v6.709M46.1 6.986c-.424-.41-1.139-.724-2.187-.724-.688 0-1.324.263-1.724.544l-1.195-.544v7.409h1.462V9.248c0-1.132.641-1.618 1.457-1.618.816 0 1.457.486 1.457 1.618v4.423h1.461V9.033c0-.816-.172-1.501-.73-2.047M67.97 9.25c0-1.133.641-1.62 1.457-1.62.286 0 .55.06.773.187l.775-1.256c-.4-.183-.912-.298-1.548-.298-.688 0-1.324.262-1.724.544l-1.195-.544v7.407h1.462V9.25M48.664 13.67h1.46V6.368h-1.46zM48.664 4.908h1.46v-1.46h-1.46zM78.59 13.67h1.46V6.368h-1.46zM78.59 4.908h1.46v-1.46h-1.46zM56.004 27.875h1.46v-7.302h-1.46zM56.004 19.113h1.46v-1.461h-1.46zM60.543 9.417c.007-.213.017-.387.046-.543.026-.152.069-.289.142-.458.212-.51.772-.827 1.459-.827.49 0 1.136.09 1.43.516a.762.762 0 0 1 .078.625c-.108.34-.445.64-1.005.847-.747.277-1.598.413-2.145.47l-.005.001v-.63zm1.831 4.36c.623 0 1.12-.092 1.562-.292.394-.175.752-.439 1.162-.851l-.867-.82a2.207 2.207 0 0 1-.8.542c-.281.105-.598.152-1.029.152-.9 0-1.524-.453-1.758-1.28l-.002-.003.005-.001c.728-.098 2.066-.216 3.189-.822.546-.296.946-.64 1.13-1.137.144-.39.205-.876.082-1.319-.166-.6-.445-.95-.882-1.242-.495-.329-1.176-.441-1.98-.441-.488 0-.93.083-1.314.25-.38.166-.705.412-.968.733-.262.32-.463.717-.598 1.178-.136.465-.205 1-.205 1.588 0 1.31.32 2.295.953 2.93.551.553 1.332.834 2.32.834zM40.636 24.252h-.005v-.63a3.88 3.88 0 0 1 .046-.544c.026-.152.069-.288.142-.457.213-.511.772-.827 1.459-.827.489 0 1.135.089 1.43.516a.766.766 0 0 1 .078.625c-.108.339-.445.64-1.004.847-.749.276-1.6.413-2.146.47m3.287.354c.547-.295.947-.639 1.13-1.136.145-.39.206-.875.084-1.32-.167-.6-.446-.95-.883-1.24-.496-.33-1.176-.443-1.98-.443-.487 0-.93.085-1.314.252-.38.165-.705.411-.968.732a3.29 3.29 0 0 0-.598 1.177c-.136.466-.205 1-.205 1.588 0 1.311.32 2.297.952 2.93.552.554 1.334.835 2.32.835.624 0 1.121-.093 1.563-.29.393-.176.752-.44 1.162-.852l-.867-.82a2.207 2.207 0 0 1-.8.542c-.282.105-.598.152-1.03.152-.899 0-1.523-.455-1.758-1.28v-.004h.004c.729-.098 2.067-.215 3.188-.823M68.791 24.252h-.004v-.63a3.88 3.88 0 0 1 .045-.544c.027-.152.07-.288.142-.457.213-.511.772-.827 1.46-.827.49 0 1.135.089 1.43.516a.762.762 0 0 1 .077.625c-.107.339-.445.64-1.004.847-.748.276-1.599.413-2.146.47m3.288.354c.546-.295.946-.639 1.13-1.136.145-.39.206-.875.083-1.32-.166-.6-.446-.95-.882-1.24-.496-.33-1.176-.443-1.98-.443-.488 0-.93.085-1.315.252-.38.165-.705.411-.968.732-.262.32-.463.716-.597 1.177-.137.466-.205 1-.205 1.588 0 1.311.32 2.297.951 2.93.553.554 1.334.835 2.32.835.625 0 1.121-.093 1.564-.29.393-.176.752-.44 1.161-.852l-.867-.82a2.207 2.207 0 0 1-.8.542c-.281.105-.598.152-1.028.152-.9 0-1.525-.455-1.758-1.28l-.002-.004h.004c.729-.098 2.067-.215 3.189-.823M87.784 10.047v-.63a3.88 3.88 0 0 1 .046-.544c.025-.152.068-.288.14-.457.214-.51.773-.828 1.46-.828.49 0 1.136.09 1.432.517a.766.766 0 0 1 .076.625c-.107.34-.445.64-1.004.846-.748.278-1.6.413-2.146.471h-.004zm2.888 2.308c-.282.106-.599.153-1.03.153-.9 0-1.524-.454-1.757-1.28l-.002-.004h.004c.73-.098 2.067-.215 3.19-.822.545-.297.945-.64 1.13-1.137.144-.39.205-.876.082-1.32-.167-.6-.446-.95-.883-1.24-.494-.33-1.176-.443-1.98-.443-.487 0-.93.085-1.314.252-.38.165-.705.41-.968.731a3.31 3.31 0 0 0-.597 1.179c-.137.464-.205.999-.205 1.587 0 1.31.32 2.296.952 2.93.551.554 1.333.834 2.32.834.624 0 1.12-.091 1.562-.29.394-.176.753-.439 1.164-.851l-.869-.82a2.193 2.193 0 0 1-.799.541zM75.001 9.375l-1.145-.101c-.773-.073-1.002-.406-1.002-.84 0-.551.443-.941 1.318-.941.686 0 1.33.144 1.789.536l.917-.942c-.674-.592-1.605-.824-2.692-.824-1.517 0-2.735.81-2.735 2.242 0 1.29.787 1.912 2.147 2.028l1.16.1c.702.059.973.377.973.87 0 .694-.7 1.012-1.588 1.012-.716 0-1.504-.159-2.092-.767l-.958.97c.858.855 1.86 1.058 3.05 1.058 1.731 0 3.02-.798 3.02-2.331 0-1.303-.8-1.955-2.162-2.07M36.346 25.565c-.002.522-.49 1.089-1.365 1.089-1.189 0-1.848-.788-1.848-2.034v-1.014c.015-.444.043-.659.186-.989.23-.542.828-.814 1.45-.814.895 0 1.575.288 1.577 1.046.002.678.003 2.036 0 2.716m0-4.79c-.416-.184-.94-.29-1.58-.29-2.105 0-3.078 1.36-3.078 3.708 0 2.76 1.445 3.72 3.265 3.72.676 0 1.19-.228 1.636-.554l1.217.554V17.652h-1.46v3.123M51.22 25.784v-8.132h-1.46v8.216c0 1.076.602 2.007 1.993 2.007h3.112v-1.247H52.01c-.587 0-.788-.287-.788-.844M61.049 25.693v-8.04h-1.46v8.129c0 1.12.581 2.093 2.031 2.093h.776v-1.3h-.525c-.613 0-.822-.3-.822-.882M65.178 25.693v-8.04h-1.46v8.129c0 1.12.582 2.093 2.032 2.093h.776v-1.3H66c-.613 0-.823-.3-.823-.882M91.108 3.075l-3.335 1.521v1.275l3.335-1.521V3.075"/>
    </g>
</svg>
